<?xml version="1.0" encoding="UTF-8"?>
<svg width="118px" height="36px" viewBox="0 0 118 36" version="1.1" xmlns="http://www.w3.org/2000/svg" xmlns:xlink="http://www.w3.org/1999/xlink">
    <!-- Generator: Sketch 61.2 (89653) - https://sketch.com -->
    <title>Group 8</title>
    <desc>Created with Sketch.</desc>
    <defs>
        <polygon id="path-1" points="0.000156521739 0.50486087 117.612 0.50486087 117.612 36 0.000156521739 36"></polygon>
    </defs>
    <g id="Page-1" stroke="none" stroke-width="1" fill="none" fill-rule="evenodd">
        <g id="User-Page---Uyelik-Bilgileri" transform="translate(-215.000000, -1029.000000)">
            <g id="Footer" transform="translate(0.000000, 808.000000)">
                <g id="Group-8" transform="translate(215.000000, 221.000000)">
                    <g id="Group-32">
                        <g id="Group-3">
                            <mask id="mask-2" fill="white">
                                <use xlink:href="#path-1"></use>
                            </mask>
                            <g id="Clip-2"></g>
                            <path d="M117.612157,31.2019043 C117.612157,33.8502522 115.285461,36.0000783 112.4172,36.0000783 L5.2005913,36.0000783 C2.32763478,36.0000783 0.000156521739,33.8502522 0.000156521739,31.2019043 L0.000156521739,5.29912174 C0.000156521739,2.65155652 2.32763478,0.50486087 5.2005913,0.50486087 L112.4172,0.50486087 C115.285461,0.50486087 117.612157,2.65155652 117.612157,5.29912174 L117.612157,31.2019043 Z" id="Fill-1" fill="#1A171B" mask="url(#mask-2)"></path>
                        </g>
                        <path d="M30.6715304,23.9658261 C30.0485739,25.2406957 29.7496174,25.8065217 28.9490087,26.9326957 C27.8298783,28.5049565 26.2529217,30.4606957 24.3018783,30.4763478 C22.5652696,30.492 22.1176174,29.4331304 19.7635304,29.4487826 C17.4078783,29.4581739 16.9156174,30.4951304 15.1782261,30.4796537 C13.2256174,30.4646087 11.7324,28.6974783 10.612487,27.1244348 C7.48753043,22.7324348 7.15726957,17.5766087 9.09031304,14.8374783 C10.4606609,12.888 12.6206609,11.7485217 14.6538783,11.7485217 C16.7254435,11.7485217 18.028487,12.7972174 19.7369217,12.7972174 C21.4015304,12.7972174 22.4095304,11.7485217 24.804313,11.7485217 C26.6137043,11.7485217 28.5326609,12.657913 29.898313,14.2309565 C25.4210087,16.491913 26.1488348,22.3896522 30.6715304,23.9658261" id="Fill-4" fill="#FFFFFF"></path>
                        <path d="M22.9891304,9.99125217 C23.8570435,8.96055652 24.5214783,7.50725217 24.2804348,6.02264348 C22.86,6.11264348 21.1969565,6.94377391 20.2257391,8.03081739 C19.3484348,9.02003478 18.6182609,10.4827304 18.9015652,11.9062957 C20.4534783,11.9509043 22.0578261,11.095513 22.9891304,9.99125217" id="Fill-6" fill="#FFFFFF"></path>
                        <path d="M40.202687,14.7694696 L35.720687,26.9390348 L37.7719043,26.9390348 L39.1109478,23.2028609 L43.4473826,23.2028609 L44.8247739,26.9390348 L46.9331217,26.9390348 L42.4323391,14.7694696 L40.202687,14.7694696 Z M41.2639043,16.7698174 C41.4141652,17.3152957 41.5800783,17.8787739 41.7882522,18.4899913 L42.9981652,21.7127739 L39.5617304,21.7127739 L40.7481652,18.4672957 C40.9312957,17.9413826 41.102687,17.3708609 41.2639043,16.7698174 L41.2639043,16.7698174 Z" id="Fill-8" fill="#FFFFFF"></path>
                        <path d="M52.7290435,17.9251043 C51.372,17.9251043 50.2841739,18.4079739 49.5586957,19.3306696 L49.478087,18.1184087 L47.6546087,18.1184087 L47.6632174,18.2749304 C47.7187826,19.0285826 47.739913,19.8565826 47.739913,21.0492783 L47.739913,30.4272783 L49.7371304,30.4272783 L49.7371304,26.0501478 C50.3561739,26.735713 51.3446087,27.131713 52.4653043,27.131713 C53.6306087,27.131713 54.7051304,26.7106696 55.4877391,25.9468435 C56.3626957,25.0938 56.8213043,23.8698 56.8213043,22.4047565 C56.8213043,21.1126696 56.4237391,19.9943217 55.6653913,19.1718 C54.9211304,18.3672783 53.8810435,17.9251043 52.7290435,17.9251043 M52.2328696,19.4488435 C54.0125217,19.4488435 54.8092174,20.9686696 54.8092174,22.4759739 C54.8092174,24.4176261 53.7926087,25.6267565 52.1585217,25.6267565 C51.0417391,25.6267565 50.0752174,24.9255391 49.8067826,23.9191043 C49.7613913,23.7602348 49.7371304,23.5544087 49.7371304,23.3211913 L49.7371304,21.8412783 C49.7371304,21.7074522 49.7676522,21.543887 49.8013043,21.3858 C49.809913,21.335713 49.8208696,21.2864087 49.8263478,21.2363217 C50.126087,20.183713 51.1145217,19.4488435 52.2328696,19.4488435" id="Fill-10" fill="#FFFFFF"></path>
                        <path d="M63.0061043,17.9251043 C61.6451478,17.9251043 60.558887,18.4079739 59.8334087,19.3306696 L59.7535826,18.1184087 L57.9293217,18.1184087 L57.9394957,18.2749304 C57.9942783,19.0285826 58.0169739,19.8565826 58.0169739,21.0492783 L58.0169739,30.4272783 L60.0126261,30.4272783 L60.0126261,26.0501478 C60.6301043,26.735713 61.6201043,27.131713 62.736887,27.131713 C63.9061043,27.131713 64.9790609,26.7106696 65.7616696,25.9468435 C66.6374087,25.0938 67.0983652,23.8698 67.0983652,22.4047565 C67.0983652,21.1126696 66.6976696,19.9943217 65.9377565,19.1718 C65.1950609,18.3672783 64.1565391,17.9251043 63.0061043,17.9251043 M62.5091478,19.4488435 C64.2872348,19.4488435 65.0839304,20.9686696 65.0839304,22.4759739 C65.0839304,24.4176261 64.0681043,25.6267565 62.4324522,25.6267565 C61.3172348,25.6267565 60.3491478,24.9255391 60.0838435,23.9191043 C60.0361043,23.7602348 60.0126261,23.5544087 60.0126261,23.3211913 L60.0126261,21.8412783 C60.0126261,21.7074522 60.0454957,21.5423217 60.0768,21.3858 C60.0854087,21.335713 60.0940174,21.2864087 60.1034087,21.2363217 C60.4008,20.183713 61.3908,19.4488435 62.5091478,19.4488435" id="Fill-12" fill="#FFFFFF"></path>
                        <path d="M75.8793913,19.9244348 C74.0144348,19.2615652 73.4212174,18.738 73.4212174,17.769913 C73.4212174,16.9567826 74.120087,16.1373913 75.6884348,16.1373913 C76.9828696,16.1373913 77.8077391,16.5513913 78.03,16.6797391 L78.1998261,16.776 L78.7625217,15.2405217 L78.6529565,15.1786957 C78.3164348,14.9963478 77.3624348,14.5768696 75.7471304,14.5768696 C73.2005217,14.5768696 71.4224348,15.9628696 71.4224348,17.9475652 C71.4224348,19.5456522 72.5368696,20.6632174 74.9246087,21.4677391 C76.6173913,22.05 77.2505217,22.6471304 77.2505217,23.673913 C77.2505217,24.8353043 76.2785217,25.5545217 74.7148696,25.5545217 C73.6943478,25.5545217 72.6472174,25.2806087 71.8364348,24.8032174 L71.6650435,24.7014783 L71.1273913,26.2745217 L71.2291304,26.334 C71.978087,26.798087 73.400087,27.1314783 74.5990435,27.1314783 C78.03,27.1314783 79.2453913,25.2031304 79.2453913,23.5518261 C79.2453913,21.8473043 78.2710435,20.7970435 75.8793913,19.9244348" id="Fill-14" fill="#FFFFFF"></path>
                        <path d="M82.8388174,16.022113 L80.8791652,16.5887217 L80.8791652,18.1187217 L79.4477739,18.1187217 L79.4477739,19.5884609 L80.8791652,19.5884609 L80.8791652,24.0970696 C80.8791652,25.1872435 81.1045565,25.9510696 81.5717739,26.4339391 C82.0162957,26.8855043 82.7026435,27.1312435 83.4993391,27.1312435 C84.2545565,27.1312435 84.7922087,26.9950696 85.0426435,26.9136783 L85.1545565,26.8753304 L85.0606435,25.4016783 L84.8657739,25.4556783 C84.6145565,25.5276783 84.3578609,25.5550696 83.9407304,25.5550696 C83.1651652,25.5550696 82.8388174,25.1027217 82.8388174,24.0438522 L82.8388174,19.5884609 L85.2445565,19.5884609 L85.2445565,18.1187217 L82.8388174,18.1187217 L82.8388174,16.022113 Z" id="Fill-16" fill="#FFFFFF"></path>
                        <path d="M90.1887652,17.9251043 C87.3972,17.9251043 85.4477217,19.8471913 85.4477217,22.5988435 C85.4477217,25.2683217 87.3345913,27.131713 90.0369391,27.131713 L90.0533739,27.131713 C92.3393739,27.131713 94.7975478,25.6682348 94.7975478,22.4399739 C94.7975478,21.1314522 94.3585043,20.0029304 93.5258087,19.1835391 C92.6868522,18.3618 91.5301565,17.9251043 90.1887652,17.9251043 M90.1300696,19.3768435 C91.9277217,19.3768435 92.7447652,20.993713 92.7447652,22.4924087 C92.7447652,24.3401478 91.6264174,25.6799739 90.0917217,25.6799739 L90.0745043,25.6799739 C88.5609391,25.6799739 87.4629391,24.3620609 87.4629391,22.5487565 C87.4629391,20.9686696 88.2870261,19.3768435 90.1300696,19.3768435" id="Fill-18" fill="#FFFFFF"></path>
                        <path d="M100.909174,18.0091565 L100.789435,17.9825478 C100.611783,17.9410696 100.469348,17.9254174 100.293261,17.9254174 C99.2484783,17.9254174 98.3132609,18.4920261 97.7896957,19.4084609 L97.731,18.1187217 L95.9427391,18.1187217 L95.952913,18.2752435 C96.0061304,19.0038522 96.0280435,19.8193304 96.0280435,20.9251565 L96.0100435,26.9387217 L98.0033478,26.9387217 L98.0033478,22.2454174 C98.0033478,21.9910696 98.0221304,21.7500261 98.0612609,21.5324609 C98.2843043,20.4055043 99.1099565,19.6784609 100.15787,19.6784609 C100.363696,19.6784609 100.525696,19.6909826 100.697087,19.7074174 L100.909174,19.7285478 L100.909174,18.0091565 Z" id="Fill-20" fill="#FFFFFF"></path>
                        <path d="M105.394617,17.9067913 C102.740791,17.9067913 100.884443,19.8656609 100.884443,22.6689652 C100.884443,25.371313 102.729052,27.1157478 105.584009,27.1157478 C107.085835,27.1157478 108.13453,26.811313 108.744183,26.5546174 L108.865487,26.505313 L108.482009,25.1334 L108.313748,25.1967913 C107.770617,25.399487 107.047487,25.6076609 105.816443,25.6076609 C104.949313,25.6076609 102.948965,25.345487 102.826878,22.9381826 L109.2654,22.9561826 L109.292791,22.8387913 C109.331922,22.6509652 109.354617,22.3981826 109.354617,22.0718348 C109.354617,20.1489652 108.315313,17.9067913 105.394617,17.9067913 M105.262357,19.3092261 C105.868096,19.3092261 106.362704,19.4829652 106.725052,19.8226174 C107.30027,20.3618348 107.402009,21.1554 107.412183,21.5365304 L102.863661,21.5365304 C103.047574,20.4729652 103.770704,19.3092261 105.262357,19.3092261" id="Fill-22" fill="#FFFFFF"></path>
                        <path d="M36.969887,10.6981826 L36.437713,12.1867043 L35.7505826,12.1867043 L37.4965826,7.45035652 L38.2971913,7.45035652 L40.0502348,12.1867043 L39.3404087,12.1867043 L38.7941478,10.6981826 L36.969887,10.6981826 Z M38.6532783,10.2184435 L38.1445826,8.85435652 C38.0389304,8.5460087 37.9630174,8.26505217 37.8855391,7.99113913 L37.8636261,7.99113913 C37.7955391,8.26505217 37.7118,8.55774783 37.6124087,8.84809565 L37.1099739,10.2184435 L38.6532783,10.2184435 Z" id="Fill-24" fill="#FFFFFF"></path>
                        <path d="M40.7368957,8.78525217 L41.4576783,10.6885565 C41.5836783,11.0062957 41.6807217,11.285687 41.7582,11.5666435 L41.7824609,11.5666435 C41.8630696,11.285687 41.9718522,11.0062957 42.0939391,10.6885565 L42.8115913,8.78525217 L43.5120261,8.78525217 L42.0626348,12.1872522 L41.4208957,12.1872522 L40.0215913,8.78525217 L40.7368957,8.78525217 Z" id="Fill-26" fill="#FFFFFF"></path>
                        <path d="M46.5973043,11.3707565 C46.5973043,11.6665826 46.6145217,11.9538 46.6505217,12.1870174 L46.0502609,12.1870174 L45.9892174,11.7565826 L45.9665217,11.7565826 C45.7685217,12.0250174 45.3654783,12.2660609 44.838,12.2660609 C44.0921739,12.2660609 43.7110435,11.7784957 43.7110435,11.2862348 C43.7110435,10.463713 44.5046087,10.0160609 45.9273913,10.0223217 L45.9273913,9.95110435 C45.9273913,9.67093043 45.8444348,9.1551913 45.0923478,9.16614783 C44.7370435,9.16614783 44.3833043,9.25536522 44.1211304,9.41736522 L43.9693043,9.00101739 C44.2721739,8.82571304 44.7221739,8.70753913 45.1893913,8.70753913 C46.3233913,8.70753913 46.5973043,9.41736522 46.5973043,10.1013652 L46.5973043,11.3707565 Z M45.9430435,10.4480609 C45.2113043,10.4363217 44.3833043,10.553713 44.3833043,11.2181478 C44.3833043,11.6219739 44.6697391,11.8074522 45.0070435,11.8074522 C45.4930435,11.8074522 45.8068696,11.525713 45.914087,11.2361478 C45.936,11.1735391 45.9430435,11.1023217 45.9430435,11.039713 L45.9430435,10.4480609 Z" id="Fill-28" fill="#FFFFFF"></path>
                        <path d="M47.9546609,8.15932174 C47.7050087,8.15932174 47.5359652,7.9754087 47.5359652,7.75706087 C47.5359652,7.53871304 47.710487,7.3641913 47.970313,7.3641913 C48.2293565,7.3641913 48.3968348,7.53871304 48.3968348,7.75706087 C48.3968348,7.9754087 48.2293565,8.15932174 47.9617043,8.15932174 L47.9546609,8.15932174 Z M47.6337913,12.1905391 L48.3052696,12.1905391 L48.3052696,8.7854087 L47.6337913,8.7854087 L47.6337913,12.1905391 Z" id="Fill-30" fill="#FFFFFF"></path>
                    </g>
                    <polygon id="Fill-33" fill="#FFFFFF" points="49.3794783 12.189913 50.0517391 12.189913 50.0517391 7.19608696 49.3794783 7.19608696"></polygon>
                    <g id="Group-38" transform="translate(50.086957, 7.043478)" fill="#FFFFFF">
                        <path d="M3.63787826,4.32727826 C3.63787826,4.62310435 3.65196522,4.91032174 3.68953043,5.14353913 L3.08770435,5.14353913 L3.02666087,4.71310435 L3.00318261,4.71310435 C2.80753043,4.98153913 2.40292174,5.22258261 1.87544348,5.22258261 C1.12883478,5.22258261 0.748486957,4.73501739 0.748486957,4.24275652 C0.748486957,3.42023478 1.54205217,2.97258261 2.9664,2.97884348 L2.9664,2.90762609 C2.9664,2.62745217 2.88187826,2.11171304 2.1297913,2.12266957 C1.77683478,2.12266957 1.42074783,2.21188696 1.16013913,2.37388696 L1.00674783,1.95753913 C1.31118261,1.78223478 1.76431304,1.66406087 2.22918261,1.66406087 C3.36083478,1.66406087 3.63787826,2.37388696 3.63787826,3.05788696 L3.63787826,4.32727826 Z M2.98361739,3.40458261 C2.25187826,3.39284348 1.42074783,3.51023478 1.42074783,4.17466957 C1.42074783,4.57849565 1.71031304,4.76397391 2.04526957,4.76397391 C2.53283478,4.76397391 2.84431304,4.48223478 2.95074783,4.19266957 C2.97735652,4.13006087 2.98361739,4.05884348 2.98361739,3.99623478 L2.98361739,3.40458261 Z" id="Fill-34"></path>
                        <path d="M4.67350435,0.149791304 L5.34341739,0.149791304 L5.34341739,2.28161739 L5.36063478,2.28161739 C5.59698261,1.90361739 6.02350435,1.66413913 6.61672174,1.66413913 C7.53002609,1.66413913 8.17254783,2.36535652 8.17254783,3.39292174 C8.17254783,4.61692174 7.33437391,5.22187826 6.51263478,5.22187826 C5.97733043,5.22187826 5.5602,5.03092174 5.27533043,4.57857391 L5.25967826,4.57857391 L5.22211304,5.14361739 L4.64533043,5.14361739 C4.66567826,4.9104 4.67350435,4.5684 4.67350435,4.26474783 L4.67350435,0.149791304 Z M5.34341739,3.77953043 C5.34341739,3.85622609 5.3535913,3.93526957 5.36689565,4.00335652 C5.49915652,4.4337913 5.89515652,4.72883478 6.37411304,4.72883478 C7.08237391,4.72883478 7.4948087,4.20292174 7.4948087,3.42031304 C7.4948087,2.7324 7.11367826,2.15013913 6.3975913,2.15013913 C5.93898261,2.15013913 5.51324348,2.44361739 5.38333043,2.90692174 C5.36063478,2.98596522 5.34341739,3.06813913 5.34341739,3.16909565 L5.34341739,3.77953043 Z" id="Fill-36"></path>
                    </g>
                    <polygon id="Fill-39" fill="#FFFFFF" points="59.0611304 12.189913 59.7294783 12.189913 59.7294783 7.19608696 59.0611304 7.19608696"></polygon>
                    <g id="Group-64" transform="translate(60.260870, 7.043478)" fill="#FFFFFF">
                        <path d="M0.927782609,3.54850435 C0.944217391,4.38433043 1.51473913,4.72867826 2.187,4.72867826 C2.66595652,4.72867826 2.96413043,4.6512 3.20595652,4.56041739 L3.32726087,4.99789565 C3.09482609,5.09415652 2.67926087,5.21467826 2.09543478,5.21467826 C0.968478261,5.21467826 0.280565217,4.51737391 0.280565217,3.4992 C0.280565217,2.4645913 0.944217391,1.65537391 2.0163913,1.65537391 C3.2223913,1.65537391 3.53230435,2.63206957 3.53230435,3.25972174 C3.53230435,3.38572174 3.52604348,3.48276522 3.51273913,3.55476522 L0.927782609,3.54850435 Z M2.88430435,3.10711304 C2.89682609,2.71737391 2.70978261,2.09754783 1.96395652,2.09754783 C1.28073913,2.09754783 0.991173913,2.67667826 0.934043478,3.10711304 L2.88430435,3.10711304 Z" id="Fill-40"></path>
                        <path d="M7.40574783,5.22226957 C6.41574783,5.22226957 5.63783478,4.54531304 5.63783478,3.47157391 C5.63783478,2.33209565 6.45487826,1.66374783 7.46757391,1.66374783 C8.52331304,1.66374783 9.24018261,2.37357391 9.24018261,3.40505217 C9.24018261,4.67287826 8.29244348,5.22226957 7.41357391,5.22226957 L7.40574783,5.22226957 Z M7.42922609,4.7574 C8.0694,4.7574 8.55070435,4.20253043 8.55070435,3.42696522 C8.55070435,2.85174783 8.23687826,2.12861739 7.44253043,2.12861739 C6.65757391,2.12861739 6.31635652,2.80087826 6.31635652,3.44887826 C6.31635652,4.19313913 6.77418261,4.7574 7.4214,4.7574 L7.42922609,4.7574 Z" id="Fill-42"></path>
                        <path d="M10.0501043,2.66118261 C10.0501043,2.30274783 10.0438435,2.02257391 10.014887,1.74161739 L10.6143652,1.74161739 L10.6519304,2.29570435 L10.6636696,2.29570435 C10.850713,1.97796522 11.2788,1.66413913 11.8861043,1.66413913 C12.3963652,1.66413913 13.1899304,1.94353043 13.1899304,3.11274783 L13.1899304,5.14361739 L12.5200174,5.14361739 L12.5200174,3.18161739 C12.5200174,2.63222609 12.3016696,2.16813913 11.6677565,2.16813913 C11.2318435,2.16813913 10.8874957,2.45848696 10.7654087,2.80126957 C10.7364522,2.87796522 10.7223652,2.99066087 10.7223652,3.09083478 L10.7223652,5.14361739 L10.0501043,5.14361739 L10.0501043,2.66118261 Z" id="Fill-44"></path>
                        <path d="M16.6266,0.926295652 L16.6266,1.74177391 L17.5884261,1.74177391 L17.5884261,2.21212174 L16.6266,2.21212174 L16.6266,4.04655652 C16.6266,4.46681739 16.7572957,4.70629565 17.1321652,4.70629565 C17.3152957,4.70629565 17.422513,4.69455652 17.5219043,4.66716522 L17.5492957,5.13751304 C17.422513,5.17742609 17.2159043,5.22203478 16.9584261,5.22203478 C16.6422522,5.22203478 16.3902522,5.12107826 16.234513,4.9629913 C16.0513826,4.76968696 15.9723391,4.46681739 15.9723391,4.06925217 L15.9723391,2.21212174 L15.4033826,2.21212174 L15.4033826,1.74177391 L15.9723391,1.74177391 L15.9723391,1.11568696 L16.6266,0.926295652 Z" id="Fill-46"></path>
                        <path d="M18.3064696,0.149791304 L18.9771652,0.149791304 L18.9771652,2.27535652 L18.9904696,2.27535652 C19.097687,2.09770435 19.2659478,1.93883478 19.4717739,1.83866087 C19.6705565,1.72674783 19.907687,1.66413913 20.1565565,1.66413913 C20.6519478,1.66413913 21.4431652,1.94353043 21.4431652,3.1190087 L21.4431652,5.14361739 L20.7748174,5.14361739 L20.7748174,3.1910087 C20.7748174,2.63222609 20.5549043,2.17518261 19.9202087,2.17518261 C19.4866435,2.17518261 19.1493391,2.45848696 19.0225565,2.7957913 C18.9849913,2.87796522 18.9771652,2.97187826 18.9771652,3.09083478 L18.9771652,5.14361739 L18.3064696,5.14361739 L18.3064696,0.149791304 Z" id="Fill-48"></path>
                        <path d="M22.8767478,3.54850435 C22.8908348,4.38433043 23.464487,4.72867826 24.1359652,4.72867826 C24.616487,4.72867826 24.9138783,4.6512 25.1572696,4.56041739 L25.2785739,4.99789565 C25.0430087,5.09415652 24.6321391,5.21467826 24.0420522,5.21467826 C22.914313,5.21467826 22.2287478,4.51737391 22.2287478,3.4992 C22.2287478,2.4645913 22.8908348,1.65537391 23.968487,1.65537391 C25.1713565,1.65537391 25.4836174,2.63206957 25.4836174,3.25972174 C25.4836174,3.38572174 25.4757913,3.48276522 25.4601391,3.55476522 L22.8767478,3.54850435 Z M24.8348348,3.10711304 C24.8450087,2.71737391 24.6595304,2.09754783 23.9152696,2.09754783 C23.2289217,2.09754783 22.9377913,2.67667826 22.8845739,3.10711304 L24.8348348,3.10711304 Z" id="Fill-50"></path>
                        <path d="M28.1754783,1.11584348 C27.9242609,1.11584348 27.7528696,0.931930435 27.7528696,0.713582609 C27.7528696,0.495234783 27.9289565,0.320713043 28.188,0.320713043 C28.4486087,0.320713043 28.6176522,0.495234783 28.6176522,0.713582609 C28.6176522,0.931930435 28.4486087,1.11584348 28.1817391,1.11584348 L28.1754783,1.11584348 Z M27.8538261,5.14706087 L28.5221739,5.14706087 L28.5221739,1.74193043 L27.8538261,1.74193043 L27.8538261,5.14706087 Z" id="Fill-52"></path>
                        <path d="M29.6214261,0.467765217 C29.9407304,0.411417391 30.3609913,0.369156522 30.8939478,0.369156522 C31.5482087,0.369156522 32.029513,0.507678261 32.3323826,0.762808696 C32.6141217,0.987417391 32.7909913,1.33254783 32.7909913,1.75437391 C32.7909913,2.18402609 32.6556,2.52054783 32.3879478,2.76706957 C32.0365565,3.11298261 31.4644696,3.28672174 30.8164696,3.28672174 C30.6184696,3.28672174 30.4400348,3.28124348 30.2850783,3.2475913 L30.2850783,5.14385217 L29.6214261,5.14385217 L29.6214261,0.467765217 Z M30.2850783,2.74437391 C30.4314261,2.78272174 30.6184696,2.79602609 30.8321217,2.79602609 C31.6421217,2.79602609 32.1202957,2.42976522 32.1202957,1.7888087 C32.1202957,1.15567826 31.6421217,0.854373913 30.9103826,0.854373913 C30.6184696,0.854373913 30.4001217,0.882547826 30.2850783,0.903678261 L30.2850783,2.74437391 Z" id="Fill-54"></path>
                        <path d="M33.5772783,0.149791304 L34.2487565,0.149791304 L34.2487565,2.27535652 L34.2636261,2.27535652 C34.3716261,2.09770435 34.5406696,1.93883478 34.7410174,1.83866087 C34.9413652,1.72674783 35.1800609,1.66413913 35.4312783,1.66413913 C35.9251043,1.66413913 36.7155391,1.94353043 36.7155391,3.1190087 L36.7155391,5.14361739 L36.0487565,5.14361739 L36.0487565,3.1910087 C36.0487565,2.63222609 35.8264957,2.17518261 35.1918,2.17518261 C34.7613652,2.17518261 34.4264087,2.45848696 34.2933652,2.7957913 C34.2565826,2.87796522 34.2487565,2.97187826 34.2487565,3.09083478 L34.2487565,5.14361739 L33.5772783,5.14361739 L33.5772783,0.149791304 Z" id="Fill-56"></path>
                        <path d="M39.2725565,5.22226957 C38.2817739,5.22226957 37.5030783,4.54531304 37.5030783,3.47157391 C37.5030783,2.33209565 38.3193391,1.66374783 39.3320348,1.66374783 C40.391687,1.66374783 41.1077739,2.37357391 41.1077739,3.40505217 C41.1077739,4.67287826 40.1553391,5.22226957 39.2811652,5.22226957 L39.2725565,5.22226957 Z M39.2952522,4.7574 C39.9330783,4.7574 40.4143826,4.20253043 40.4143826,3.42696522 C40.4143826,2.85174783 40.1021217,2.12861739 39.3077739,2.12861739 C38.5251652,2.12861739 38.1800348,2.80087826 38.1800348,3.44887826 C38.1800348,4.19313913 38.6402087,4.7574 39.2882087,4.7574 L39.2952522,4.7574 Z" id="Fill-58"></path>
                        <path d="M41.9146435,2.66118261 C41.9146435,2.30274783 41.9083826,2.02257391 41.8833391,1.74161739 L42.4828174,1.74161739 L42.5196,2.29570435 L42.5329043,2.29570435 C42.7183826,1.97796522 43.1441217,1.66413913 43.7522087,1.66413913 C44.2648174,1.66413913 45.0544696,1.94353043 45.0544696,3.11274783 L45.0544696,5.14361739 L44.3861217,5.14361739 L44.3861217,3.18161739 C44.3861217,2.63222609 44.1638609,2.16813913 43.5322957,2.16813913 C43.1002957,2.16813913 42.7551652,2.45848696 42.6330783,2.80126957 C42.6025565,2.87796522 42.5861217,2.99066087 42.5861217,3.09083478 L42.5861217,5.14361739 L41.9146435,5.14361739 L41.9146435,2.66118261 Z" id="Fill-60"></path>
                        <path d="M46.4911043,3.54850435 C46.5036261,4.38433043 47.0780609,4.72867826 47.7448435,4.72867826 C48.2253652,4.72867826 48.5235391,4.6512 48.7692783,4.56041739 L48.8913652,4.99789565 C48.6550174,5.09415652 48.2425826,5.21467826 47.6532783,5.21467826 C46.5271043,5.21467826 45.8431043,4.51737391 45.8431043,3.4992 C45.8431043,2.4645913 46.5036261,1.65537391 47.5773652,1.65537391 C48.7818,1.65537391 49.0956261,2.63206957 49.0956261,3.25972174 C49.0956261,3.38572174 49.0893652,3.48276522 49.073713,3.55476522 L46.4911043,3.54850435 Z M48.4476261,3.10711304 C48.4585826,2.71737391 48.2723217,2.09754783 47.5264957,2.09754783 C46.8370174,2.09754783 46.5513652,2.67667826 46.4973652,3.10711304 L48.4476261,3.10711304 Z" id="Fill-62"></path>
                    </g>
                </g>
            </g>
        </g>
    </g>
</svg>