<?xml version="1.0" encoding="UTF-8"?>
<svg width="118px" height="36px" viewBox="0 0 118 36" version="1.1" xmlns="http://www.w3.org/2000/svg" xmlns:xlink="http://www.w3.org/1999/xlink">
    <!-- Generator: Sketch 61.2 (89653) - https://sketch.com -->
    <title>Group 4</title>
    <desc>Created with Sketch.</desc>
    <defs>
        <polygon id="path-1" points="0.149947826 0.50486087 117.761948 0.50486087 117.761948 36 0.149947826 36"></polygon>
        <path d="M0.362347826,1.3233913 L0.362347826,23.5228696 C0.362347826,23.7913043 0.491478261,23.9728696 0.686347826,24.0354783 L0.686347826,24.0354783 L13.5031304,12.315913 L0.795913043,0.692608696 C0.541565217,0.757565217 0.362347826,0.968869565 0.362347826,1.3233913" id="path-3"></path>
        <linearGradient x1="49.9586832%" y1="-1.64765246%" x2="49.9586832%" y2="101.308612%" id="linearGradient-5">
            <stop stop-color="#97CDBC" offset="0%"></stop>
            <stop stop-color="#1579AC" offset="100%"></stop>
        </linearGradient>
        <path d="M0.0133043478,0.692608696 L12.7205217,12.315913 L16.2469565,9.08373913 L10.9424348,6.25852174 C10.9424348,6.25852174 10.9087826,6.23895652 10.8438261,6.20686957 L10.8438261,6.20686957 L10.8273913,6.19591304 C10.8125217,6.19043478 10.7984348,6.18026087 10.7796522,6.17165217 L10.7796522,6.17165217 L10.7749565,6.1653913 C10.7624348,6.16147826 10.7522609,6.15521739 10.7428696,6.15365217 L10.7428696,6.15365217 L0.669130435,0.78573913 C0.507913043,0.707478261 0.344347826,0.666782609 0.194869565,0.666782609 L0.194869565,0.666782609 C0.130695652,0.666782609 0.0712173913,0.673043478 0.0133043478,0.692608696" id="path-6"></path>
        <linearGradient x1="-2.71838693%" y1="49.9831522%" x2="99.9440578%" y2="49.9831522%" id="linearGradient-8">
            <stop stop-color="#5DB8A7" offset="0%"></stop>
            <stop stop-color="#E4E697" offset="100%"></stop>
        </linearGradient>
        <path d="M0.686347826,12.2963478 C0.838956522,12.3409565 1.03382609,12.3174783 1.24669565,12.2110435 L1.24669565,12.2110435 L1.512,12.0717391 C3.08817391,11.2273043 11.0848696,6.96756522 11.6906087,6.64434783 L11.6906087,6.64434783 C11.7,6.64434783 11.703913,6.63730435 11.7078261,6.63417391 L11.7078261,6.63417391 L11.7125217,6.63417391 C11.7148696,6.63417391 11.7148696,6.6326087 11.7148696,6.6326087 L11.7148696,6.6326087 L11.7211304,6.62869565 L11.7250435,6.62869565 L17.0295652,3.79878261 L13.5031304,0.576782609 L0.686347826,12.2963478 Z" id="path-9"></path>
        <linearGradient x1="49.9712685%" y1="0.00203101187%" x2="49.9712685%" y2="103.03708%" id="linearGradient-11">
            <stop stop-color="#8C428E" offset="0%"></stop>
            <stop stop-color="#E23434" offset="100%"></stop>
        </linearGradient>
        <path d="M0.198782609,3.70721739 L3.72521739,6.92921739 L3.77373913,6.90573913 L3.77686957,6.90573913 L3.85513043,6.86269565 C3.85826087,6.85721739 3.86373913,6.85721739 3.87078261,6.85565217 L3.87078261,6.85565217 L8.8653913,4.19243478 C9.396,3.89034783 9.35452174,3.48808696 8.91156522,3.23843478 L8.91156522,3.23843478 L8.86226087,3.21026087 L8.85678261,3.21026087 C8.35356522,2.95982609 3.72521739,0.475043478 3.72521739,0.475043478 L3.72521739,0.475043478 L0.198782609,3.70721739 Z" id="path-12"></path>
        <linearGradient x1="50.7770521%" y1="-0.00672608221%" x2="50.7770521%" y2="100.005286%" id="linearGradient-14">
            <stop stop-color="#FBCA72" offset="0%"></stop>
            <stop stop-color="#ED8777" offset="100%"></stop>
        </linearGradient>
    </defs>
    <g id="Page-1" stroke="none" stroke-width="1" fill="none" fill-rule="evenodd">
        <g id="User-Page---Uyelik-Bilgileri" transform="translate(-357.000000, -1029.000000)">
            <g id="Footer" transform="translate(0.000000, 808.000000)">
                <g id="Group-4" transform="translate(357.000000, 221.000000)">
                    <g id="Group-67">
                        <mask id="mask-2" fill="white">
                            <use xlink:href="#path-1"></use>
                        </mask>
                        <g id="Clip-66"></g>
                        <path d="M117.761948,31.202687 C117.761948,33.8510348 115.43447,36.0000783 112.566209,36.0000783 L5.34881739,36.0000783 C2.47586087,36.0000783 0.149947826,33.8510348 0.149947826,31.202687 L0.149947826,5.29833913 C0.149947826,2.65155652 2.47586087,0.50486087 5.34881739,0.50486087 L112.566209,0.50486087 C115.43447,0.50486087 117.761948,2.65155652 117.761948,5.29833913 L117.761948,31.202687 Z" id="Fill-65" fill="#1A171B" mask="url(#mask-2)"></path>
                    </g>
                    <g id="Group-70" transform="translate(8.608696, 7.043478)">
                        <mask id="mask-4" fill="white">
                            <use xlink:href="#path-3"></use>
                        </mask>
                        <g id="Clip-69"></g>
                        <path d="M0.362347826,1.3233913 L0.362347826,23.5228696 C0.362347826,23.7913043 0.491478261,23.9728696 0.686347826,24.0354783 L0.686347826,24.0354783 L13.5031304,12.315913 L0.795913043,0.692608696 C0.541565217,0.757565217 0.362347826,0.968869565 0.362347826,1.3233913" id="Fill-68" fill="url(#linearGradient-5)" mask="url(#mask-4)"></path>
                    </g>
                    <g id="Group-73" transform="translate(9.391304, 7.043478)">
                        <mask id="mask-7" fill="white">
                            <use xlink:href="#path-6"></use>
                        </mask>
                        <g id="Clip-72"></g>
                        <path d="M0.0133043478,0.692608696 L12.7205217,12.315913 L16.2469565,9.08373913 L10.9424348,6.25852174 C10.9424348,6.25852174 10.9087826,6.23895652 10.8438261,6.20686957 L10.8438261,6.20686957 L10.8273913,6.19591304 C10.8125217,6.19043478 10.7984348,6.18026087 10.7796522,6.17165217 L10.7796522,6.17165217 L10.7749565,6.1653913 C10.7624348,6.16147826 10.7522609,6.15521739 10.7428696,6.15365217 L10.7428696,6.15365217 L0.669130435,0.78573913 C0.507913043,0.707478261 0.344347826,0.666782609 0.194869565,0.666782609 L0.194869565,0.666782609 C0.130695652,0.666782609 0.0712173913,0.673043478 0.0133043478,0.692608696" id="Fill-71" fill="url(#linearGradient-8)" mask="url(#mask-7)"></path>
                    </g>
                    <g id="Group-76" transform="translate(8.608696, 18.782609)">
                        <mask id="mask-10" fill="white">
                            <use xlink:href="#path-9"></use>
                        </mask>
                        <g id="Clip-75"></g>
                        <path d="M0.686347826,12.2963478 C0.838956522,12.3409565 1.03382609,12.3174783 1.24669565,12.2110435 L1.24669565,12.2110435 L1.512,12.0717391 C3.08817391,11.2273043 11.0848696,6.96756522 11.6906087,6.64434783 L11.6906087,6.64434783 C11.7,6.64434783 11.703913,6.63730435 11.7078261,6.63417391 L11.7078261,6.63417391 L11.7125217,6.63417391 C11.7148696,6.63417391 11.7148696,6.6326087 11.7148696,6.6326087 L11.7148696,6.6326087 L11.7211304,6.62869565 L11.7250435,6.62869565 L17.0295652,3.79878261 L13.5031304,0.576782609 L0.686347826,12.2963478 Z" id="Fill-74" fill="url(#linearGradient-11)" mask="url(#mask-10)"></path>
                    </g>
                    <g id="Group-79" transform="translate(21.913043, 15.652174)">
                        <mask id="mask-13" fill="white">
                            <use xlink:href="#path-12"></use>
                        </mask>
                        <g id="Clip-78"></g>
                        <path d="M0.198782609,3.70721739 L3.72521739,6.92921739 L3.77373913,6.90573913 L3.77686957,6.90573913 L3.85513043,6.86269565 C3.85826087,6.85721739 3.86373913,6.85721739 3.87078261,6.85565217 L3.87078261,6.85565217 L8.8653913,4.19243478 C9.396,3.89034783 9.35452174,3.48808696 8.91156522,3.23843478 L8.91156522,3.23843478 L8.86226087,3.21026087 L8.85678261,3.21026087 C8.35356522,2.95982609 3.72521739,0.475043478 3.72521739,0.475043478 L3.72521739,0.475043478 L0.198782609,3.70721739 Z" id="Fill-77" fill="url(#linearGradient-14)" mask="url(#mask-13)"></path>
                    </g>
                    <path d="M91.6813565,24.0560609 C91.1890957,24.0560609 90.7398783,23.9723217 90.3297913,23.8048435 C89.9244,23.6358 89.5816174,23.3775391 89.3045739,23.0284957 L89.2192696,23.0284957 C89.2764,23.4362348 89.3045739,23.8228435 89.3045739,24.189887 L89.3045739,27.0667565 L88.1557043,27.0667565 L88.1557043,16.9374522 L89.0909217,16.9374522 L89.2497913,17.8945826 L89.3045739,17.8945826 C89.5980522,17.511887 89.9408348,17.2340609 90.3352696,17.0650174 C90.7257913,16.8944087 91.1757913,16.809887 91.6813565,16.809887 C92.6877913,16.809887 93.4641391,17.1276261 94.0104,17.7599739 C94.554313,18.3931043 94.8282261,19.2798 94.8282261,20.4271043 C94.8282261,21.5728435 94.5519652,22.4642348 93.9939652,23.1028435 C93.4398783,23.7391043 92.6705739,24.0560609 91.6813565,24.0560609 M91.5154435,17.7106696 C90.7430087,17.7106696 90.1818783,17.9071043 89.8375304,18.3015391 C89.4924,18.6975391 89.3147478,19.3275391 89.3045739,20.1899739 L89.3045739,20.4271043 C89.3045739,21.407713 89.4822261,22.1120609 89.8375304,22.5331043 C90.1936174,22.955713 90.7594435,23.1685826 91.5420522,23.1685826 C92.1986609,23.1685826 92.7128348,22.9251913 93.0853565,22.4360609 C93.4547478,21.9469304 93.6394435,21.2707565 93.6394435,20.4114522 C93.6394435,19.5419739 93.4547478,18.8728435 93.0853565,18.4079739 C92.7128348,17.9415391 92.188487,17.7106696 91.5154435,17.7106696" id="Fill-80" fill="#FAFAFA"></path>
                    <polygon id="Fill-82" fill="#FAFAFA" points="96.3406957 23.9282609 97.4872174 23.9282609 97.4872174 14.0024348 96.3406957 14.0024348"></polygon>
                    <g id="Group-99" transform="translate(35.217391, 12.521739)" fill="#FAFAFA">
                        <path d="M68.8649478,11.4066783 L68.6372087,10.4096348 L68.5824261,10.4096348 C68.2036435,10.8494609 67.8272087,11.1445043 67.4523391,11.3010261 C67.076687,11.4559826 66.6047739,11.5342435 66.0444261,11.5342435 C65.2962522,11.5342435 64.7069478,11.3550261 64.2796435,10.9989391 C63.854687,10.6405043 63.638687,10.1325913 63.638687,9.47206957 C63.638687,8.06102609 64.862687,7.32224348 67.310687,7.25337391 L68.5980783,7.21267826 L68.5980783,6.78146087 C68.5980783,6.23285217 68.4673826,5.82746087 68.210687,5.56528696 C67.958687,5.30311304 67.5462522,5.1732 66.9859043,5.1732 C66.3535565,5.1732 65.6390348,5.35398261 64.8407739,5.70928696 L64.4893826,4.89928696 C64.862687,4.71224348 65.2688609,4.56589565 65.7180783,4.45946087 C66.1610348,4.3538087 66.6047739,4.3005913 67.0524261,4.3005913 C67.958687,4.3005913 68.6262522,4.48450435 69.0621652,4.85546087 C69.4972957,5.22641739 69.7172087,5.81728696 69.7172087,6.63433043 L69.7172087,11.4066783 L68.8649478,11.4066783 Z M66.2721652,10.6585043 C66.9882522,10.6585043 67.5478174,10.4777217 67.958687,10.1169391 C68.3632957,9.75537391 68.5691217,9.25137391 68.5691217,8.59946087 L68.5691217,7.96711304 L67.4210348,8.01093913 C66.508513,8.04146087 65.8503391,8.17215652 65.4449478,8.40693913 C65.042687,8.63702609 64.8407739,8.9978087 64.8407739,9.4845913 C64.8407739,9.86806957 64.9667739,10.1599826 65.2195565,10.3595478 C65.4692087,10.5598957 65.8198174,10.6585043 66.2721652,10.6585043 L66.2721652,10.6585043 Z" id="Fill-83"></path>
                        <path d="M70.3812522,4.41594783 L71.611513,4.41594783 L73.2722087,8.40333913 C73.6345565,9.31273043 73.8622957,9.97090435 73.9483826,10.3716 L74.005513,10.3716 C74.0657739,10.1540348 74.1909913,9.7862087 74.3803826,9.25951304 C74.5721217,8.7336 75.1966435,7.11986087 76.2578609,4.41594783 L77.489687,4.41594783 L74.231687,12.3758609 C73.9108174,13.1647304 73.5320348,13.7180348 73.1000348,14.0482957 C72.6719478,14.3777739 72.1413391,14.5444696 71.5160348,14.5444696 C71.1662087,14.5444696 70.8210783,14.5092522 70.4790783,14.435687 L70.4790783,13.5881217 C70.7287304,13.6413391 71.0167304,13.6656 71.3266435,13.6656 C72.1178609,13.6656 72.6782087,13.2539478 73.0147304,12.4408174 L73.4365565,11.4429913 L70.3812522,4.41594783 Z" id="Fill-85"></path>
                        <path d="M35.2074522,5.0648087 C35.5690174,5.34106957 36.329713,5.92724348 36.329713,7.03854783 C36.329713,8.12011304 35.6668435,8.63428696 34.9992783,9.11402609 C34.7926696,9.30341739 34.5555391,9.51002609 34.5555391,9.83402609 C34.5555391,10.154113 34.7926696,10.3294174 34.9679739,10.460113 L35.5384957,10.8678522 C36.2381478,11.4133304 36.869713,11.9079391 36.869713,12.9175043 C36.869713,14.2917652 35.4281478,15.6816783 32.7023217,15.6816783 C30.4030174,15.6816783 29.2948435,14.6713304 29.2948435,13.5882 C29.2948435,13.0615043 29.5781478,12.3164609 30.5172783,11.8062 C31.497887,11.2474174 32.8291043,11.1777652 33.5420609,11.1323739 C33.3205826,10.8678522 33.0678,10.5908087 33.0678,10.1384609 C33.0678,9.8888087 33.1444957,9.74246087 33.225887,9.56950435 C33.0505826,9.5835913 32.8760609,9.59611304 32.7164087,9.59611304 C31.037713,9.59611304 30.0876261,8.4402 30.0876261,7.30306957 C30.0876261,6.6308087 30.4210174,5.8842 31.0995391,5.34106957 C32.0034522,4.65628696 33.0811043,4.53733043 33.9380609,4.53733043 L37.2046696,4.53733043 L36.1872783,5.0648087 L35.2074522,5.0648087 Z M34.0804957,11.5565478 C33.9552783,11.5440261 33.873887,11.5440261 33.7158,11.5440261 C33.5733652,11.5440261 32.7164087,11.5722 32.0543217,11.7780261 C31.7029304,11.8930696 30.6910174,12.2452435 30.6910174,13.2822 C30.6910174,14.3199391 31.7843217,15.0673304 33.4786696,15.0673304 C34.9992783,15.0673304 35.8100609,14.3903739 35.8100609,13.4888087 C35.8100609,12.7398522 35.2864957,12.3477652 34.0804957,11.5565478 L34.0804957,11.5565478 Z M34.5406696,8.78063478 C34.9053652,8.4402 34.9382348,7.97376522 34.9382348,7.71237391 C34.9382348,6.65898261 34.2558,5.0202 32.9394522,5.0202 C32.5278,5.0202 32.0840609,5.21037391 31.8304957,5.50385217 C31.5612783,5.81141739 31.4791043,6.20428696 31.4791043,6.58698261 C31.4791043,7.56524348 32.099713,9.18837391 33.4645826,9.18837391 C33.8605826,9.18837391 34.2855391,9.01072174 34.5406696,8.78063478 L34.5406696,8.78063478 Z" id="Fill-87"></path>
                        <path d="M25.2307565,11.3234087 C22.7146696,11.3234087 21.3701478,9.51245217 21.3701478,7.87758261 C21.3701478,5.96410435 23.0629304,4.33158261 25.467887,4.33158261 C27.7914522,4.33158261 29.247887,6.00793043 29.247887,7.7781913 C29.247887,9.4968 27.8110174,11.3234087 25.2307565,11.3234087 M27.2052783,10.1416696 C27.5879739,9.67132174 27.681887,9.08827826 27.681887,8.51932174 C27.681887,7.23506087 27.015887,4.78471304 25.0554522,4.78471304 C24.5334522,4.78471304 24.0106696,4.97410435 23.6334522,5.27853913 C23.0151913,5.79036522 22.9040609,6.43210435 22.9040609,7.06053913 C22.9040609,8.50601739 23.6811913,10.8835826 25.5923217,10.8835826 C26.2090174,10.8835826 26.8444957,10.6057565 27.2052783,10.1416696" id="Fill-89"></path>
                        <path d="M16.6541478,11.3234087 C14.1388435,11.3234087 12.7919739,9.51245217 12.7919739,7.87758261 C12.7919739,5.96410435 14.4871043,4.33158261 16.8928435,4.33158261 C19.2171913,4.33158261 20.6728435,6.00793043 20.6728435,7.7781913 C20.6728435,9.4968 19.2336261,11.3234087 16.6541478,11.3234087 M18.6318,10.1416696 C19.0113652,9.67132174 19.1052783,9.08827826 19.1052783,8.51932174 C19.1052783,7.23506087 18.4400609,4.78471304 16.4772783,4.78471304 C15.9576261,4.78471304 15.4356261,4.97410435 15.0568435,5.27853913 C14.4401478,5.79036522 14.3274522,6.43210435 14.3274522,7.06053913 C14.3274522,8.50601739 15.1022348,10.8835826 17.0196261,10.8835826 C17.6355391,10.8835826 18.267887,10.6057565 18.6318,10.1416696" id="Fill-91"></path>
                        <path d="M11.5847217,11.0955913 L9.31046087,11.5776783 C8.38541739,11.712287 7.55898261,11.828113 6.6855913,11.828113 C2.29437391,11.828113 0.623504348,8.84950435 0.623504348,6.51341739 C0.623504348,3.66863478 2.99402609,1.02654783 7.05106957,1.02654783 C7.91037391,1.02654783 8.73524348,1.1415913 9.48263478,1.33489565 C10.6784609,1.64324348 11.2317652,2.0235913 11.5847217,2.24428696 L10.262113,3.40411304 L9.70646087,3.5175913 L10.1032435,2.93298261 C9.5648087,2.45011304 8.57637391,1.55637391 6.70046087,1.55637391 C4.18828696,1.55637391 2.29437391,3.31724348 2.29437391,5.88654783 C2.29437391,8.64289565 4.45672174,11.2419391 7.92289565,11.2419391 C8.94498261,11.2419391 9.46776522,11.0486348 9.94437391,10.874113 L9.94437391,8.50828696 L7.54411304,8.62802609 L8.81428696,7.99489565 L12.1873304,7.99489565 L11.774113,8.36272174 C11.6629826,8.45037391 11.6473304,8.48089565 11.6152435,8.59985217 C11.5988087,8.73133043 11.5847217,9.15628696 11.5847217,9.30341739 L11.5847217,11.0955913 Z" id="Fill-93"></path>
                        <path d="M40.2355565,10.6714174 C39.7096435,10.6275913 39.6000783,10.5407217 39.6000783,9.96706957 L39.6000783,9.80506957 L39.6000783,1.66124348 C39.6024261,1.6275913 39.6055565,1.59628696 39.6071217,1.56576522 C39.6712957,1.0508087 39.8317304,0.96393913 40.3239913,0.7002 L38.0473826,0.7002 L36.8570348,1.22924348 L38.0708609,1.22924348 L38.0708609,1.23550435 L38.0708609,1.22924348 L38.0708609,9.80506957 L38.0708609,10.2918522 C38.0708609,10.5814174 38.0074696,10.6275913 37.6427739,11.0674174 L40.4586,11.0674174 L41.0455565,10.7465478 C40.7747739,10.7144609 40.5063391,10.7019391 40.2355565,10.6714174" id="Fill-95"></path>
                        <path d="M46.7058522,10.8059478 C46.5336783,10.8928174 46.362287,10.9992522 46.1862,11.0673391 C45.6649826,11.2888174 45.1288957,11.3443826 44.6546348,11.3443826 C44.1490696,11.3443826 43.3602,11.3169913 42.5525478,10.7777739 C41.430287,10.0476 40.9419391,8.7962087 40.9419391,7.70133913 C40.9419391,5.44194783 42.9289826,4.33533913 44.5583739,4.33533913 C45.1288957,4.33533913 45.7119391,4.46603478 46.1862,4.74307826 C46.9758522,5.22281739 47.1816783,5.84968696 47.2935913,6.18542609 L43.5777652,7.57142609 L42.3631565,7.65907826 C42.7583739,9.50994783 44.1154174,10.5876 45.6180261,10.5876 C46.4233304,10.5876 47.010287,10.3254261 47.5455913,10.0789043 L46.7058522,10.8059478 Z M45.2228087,6.46325217 C45.5209826,6.35916522 45.6790696,6.27307826 45.6790696,6.0696 C45.6790696,5.48733913 44.9692435,4.8182087 44.1154174,4.8182087 C43.4854174,4.8182087 42.2989826,5.27055652 42.2989826,6.8436 C42.2989826,7.08855652 42.3334174,7.35386087 42.3490696,7.61525217 L45.2228087,6.46325217 Z" id="Fill-97"></path>
                    </g>
                    <polygon id="Fill-100" fill="#FAFAFA" points="82.9771826 16.8573913 82.9771826 16.9567826 83.3230957 16.9567826 83.3230957 17.9186087 83.4490957 17.9186087 83.4490957 16.9567826 83.7957913 16.9567826 83.7957913 16.8573913"></polygon>
                    <polygon id="Fill-101" fill="#FAFAFA" points="84.7846174 16.8573913 84.4958348 17.7135652 84.4927043 17.7135652 84.2007913 16.8573913 84.0012261 16.8573913 84.0012261 17.9186087 84.1178348 17.9186087 84.1178348 16.9505217 84.1209652 16.9505217 84.4434 17.9186087 84.5427913 17.9186087 84.8660087 16.9505217 84.8699217 16.9505217 84.8699217 17.9186087 84.9857478 17.9186087 84.9857478 16.8573913"></polygon>
                    <g id="Group-126" transform="translate(35.217391, 7.043478)" fill="#FCFCFC">
                        <path d="M3.78234783,3.64781739 L2.99269565,3.64781739 C2.99269565,3.54842609 2.91834783,3.2619913 2.76965217,2.79477391 L1.62469565,2.79477391 C1.47365217,3.25573043 1.3953913,3.53825217 1.3953913,3.64781739 L0.650347826,3.64781739 C0.650347826,3.58990435 0.841304348,3.10077391 1.22713043,2.19138261 C1.61217391,1.27494783 1.80391304,0.773295652 1.80391304,0.6786 L2.73913043,0.6786 C2.73913043,0.766252174 2.91052174,1.26242609 3.26269565,2.16477391 C3.60704348,3.0726 3.78234783,3.56329565 3.78234783,3.64781739 L3.78234783,3.64781739 Z M2.64130435,2.35886087 C2.36034783,1.57390435 2.22104348,1.15286087 2.22104348,1.08790435 L2.18191304,1.08790435 C2.18191304,1.14738261 2.034,1.57077391 1.74443478,2.35886087 L2.64130435,2.35886087 Z" id="Fill-102"></path>
                        <path d="M6.96858261,3.64781739 L6.35893043,3.64781739 C6.35893043,3.5859913 6.13275652,3.25573043 5.67962609,2.66094783 C5.20301739,2.03173043 4.93614783,1.6052087 4.86884348,1.3719913 L4.82971304,1.3719913 C4.8711913,1.7046 4.88997391,2.00668696 4.88997391,2.27355652 C4.88997391,2.65155652 4.90327826,3.10703478 4.9251913,3.64781739 L4.31866957,3.64781739 C4.34371304,3.17512174 4.35545217,2.65781739 4.35545217,2.09433913 C4.35545217,1.53946957 4.34371304,1.06833913 4.31866957,0.6786 L5.05197391,0.6786 C5.05197391,0.760773913 5.25466957,1.08086087 5.66162609,1.6419913 C6.09597391,2.23990435 6.34484348,2.64842609 6.4098,2.85973043 L6.44423478,2.85973043 C6.40432174,2.52086087 6.38632174,2.21564348 6.38632174,1.9472087 C6.38632174,1.53712174 6.37458261,1.11294783 6.35188696,0.6786 L6.96858261,0.6786 C6.94745217,1.05581739 6.93258261,1.53007826 6.93258261,2.09433913 C6.93258261,2.66642609 6.94745217,3.18373043 6.96858261,3.64781739" id="Fill-104"></path>
                        <path d="M10.5491739,2.06272174 C10.5491739,2.49315652 10.3996957,2.8695913 10.0991739,3.1935913 C9.79943478,3.51367826 9.38152174,3.67333043 8.83917391,3.67333043 C8.59656522,3.67333043 8.25926087,3.66706957 7.8296087,3.64437391 C7.85386957,3.18733043 7.86482609,2.67002609 7.86482609,2.09793913 C7.86482609,1.54306957 7.85386957,1.07193913 7.8296087,0.678286957 L8.26473913,0.678286957 C8.3336087,0.678286957 8.43769565,0.676721739 8.57778261,0.672808696 C8.71865217,0.669678261 8.81021739,0.666547826 8.85482609,0.666547826 C9.44882609,0.666547826 9.88082609,0.804286957 10.1476957,1.0782 C10.4153478,1.34976522 10.5491739,1.67924348 10.5491739,2.06272174 M9.87378261,2.15976522 C9.87378261,1.86628696 9.783,1.61976522 9.59673913,1.42176522 C9.4136087,1.22141739 9.13265217,1.12202609 8.75308696,1.12202609 C8.68030435,1.12202609 8.58326087,1.12828696 8.46195652,1.14315652 C8.47682609,1.44602609 8.48621739,1.76376522 8.48621739,2.09793913 C8.48621739,2.45872174 8.49482609,2.81950435 8.50969565,3.1748087 C8.61769565,3.19593913 8.72413043,3.20689565 8.83134783,3.20689565 C9.18508696,3.20689565 9.44882609,3.1028087 9.61708696,2.90089565 C9.78691304,2.6982 9.87378261,2.44854783 9.87378261,2.15976522" id="Fill-106"></path>
                        <path d="M13.8507652,3.64781739 L13.1190261,3.64781739 C12.9265043,3.11016522 12.7817217,2.77677391 12.6807652,2.65155652 C12.5790261,2.52712174 12.4115478,2.4606 12.1845913,2.4606 C12.089113,2.4606 11.9975478,2.46451304 11.9106783,2.46451304 C11.9106783,2.85346957 11.919287,3.24868696 11.9341565,3.64781739 L11.2462435,3.64781739 C11.2665913,3.18764348 11.279113,2.67033913 11.279113,2.09433913 C11.279113,1.54338261 11.2665913,1.07225217 11.2462435,0.6786 L11.6735478,0.6786 C11.7252,0.6786 11.8277217,0.676252174 11.9818957,0.67233913 C12.1392,0.669208696 12.2878957,0.666078261 12.4209391,0.666078261 C13.1761565,0.666078261 13.5549391,0.903208696 13.5549391,1.3806 C13.5549391,1.76016522 13.3381565,2.02233913 12.9061565,2.17181739 L12.9061565,2.20546957 C13.071287,2.24929565 13.2168522,2.36746957 13.3444174,2.56390435 C13.467287,2.75955652 13.637113,3.12190435 13.8507652,3.64781739 M12.9233739,1.5512087 C12.9233739,1.2459913 12.711287,1.09651304 12.2918087,1.09651304 C12.1360696,1.09651304 12.0006783,1.10590435 11.8793739,1.12781739 C11.8997217,1.36494783 11.909113,1.67094783 11.909113,2.05051304 C11.9975478,2.05286087 12.0750261,2.05286087 12.1368522,2.05286087 C12.6619826,2.05286087 12.9233739,1.88538261 12.9233739,1.5512087" id="Fill-108"></path>
                        <path d="M17.3893304,2.10858261 C17.3893304,2.57658261 17.2343739,2.9631913 16.9275913,3.26762609 C16.6168957,3.57362609 16.2349826,3.72858261 15.7779391,3.72858261 C15.3428087,3.72858261 14.9773304,3.59006087 14.6854174,3.3044087 C14.3927217,3.02501739 14.2455913,2.66658261 14.2455913,2.23066957 C14.2455913,1.76736522 14.4013304,1.37997391 14.7120261,1.0724087 C15.0195913,0.766408696 15.4038522,0.610669565 15.8616783,0.610669565 C16.2928957,0.610669565 16.6568087,0.75153913 16.9510696,1.03484348 C17.2437652,1.31423478 17.3893304,1.67345217 17.3893304,2.10858261 M16.7084609,2.17510435 C16.7084609,1.85736522 16.6223739,1.59832174 16.4439391,1.40266957 C16.2694174,1.20310435 16.0518522,1.10606087 15.7928087,1.10606087 C15.5525478,1.10606087 15.348287,1.20623478 15.1800261,1.4058 C15.0133304,1.60458261 14.9288087,1.85423478 14.9288087,2.15945217 C14.9288087,2.47406087 15.0164609,2.73232174 15.1933304,2.92797391 C15.3709826,3.12832174 15.5862,3.22771304 15.8444609,3.22771304 C16.0839391,3.22771304 16.2874174,3.12832174 16.4556783,2.92797391 C16.6255043,2.72527826 16.7084609,2.4771913 16.7084609,2.17510435" id="Fill-110"></path>
                        <path d="M18.7864435,3.64781739 L18.0891391,3.64781739 C18.1110522,3.17512174 18.1188783,2.65781739 18.1188783,2.09433913 C18.1188783,1.53946957 18.1110522,1.06833913 18.0891391,0.6786 L18.7864435,0.6786 C18.7668783,1.06207826 18.7543565,1.53712174 18.7543565,2.09433913 C18.7543565,2.66642609 18.7668783,3.18373043 18.7864435,3.64781739" id="Fill-112"></path>
                        <path d="M22.3662522,2.06272174 C22.3662522,2.49315652 22.2199043,2.8695913 21.9170348,3.1935913 C21.616513,3.51367826 21.1986,3.67333043 20.6570348,3.67333043 C20.4159913,3.67333043 20.0771217,3.66706957 19.6513826,3.64437391 C19.6717304,3.18733043 19.6834696,2.67002609 19.6834696,2.09793913 C19.6834696,1.54306957 19.6717304,1.07193913 19.6513826,0.678286957 L20.0833826,0.678286957 C20.1530348,0.678286957 20.2571217,0.676721739 20.3979913,0.672808696 C20.5372957,0.669678261 20.6288609,0.666547826 20.672687,0.666547826 C21.2690348,0.666547826 21.6971217,0.804286957 21.9655565,1.0782 C22.2332087,1.34976522 22.3662522,1.67924348 22.3662522,2.06272174 M21.6932087,2.15976522 C21.6932087,1.86628696 21.6008609,1.61976522 21.4153826,1.42176522 C21.2322522,1.22141739 20.9528609,1.12202609 20.5701652,1.12202609 C20.4989478,1.12202609 20.4034696,1.12828696 20.2806,1.14315652 C20.2970348,1.44602609 20.3032957,1.76376522 20.3032957,2.09793913 C20.3032957,2.45872174 20.3142522,2.81950435 20.3275565,3.1748087 C20.4363391,3.19593913 20.5435565,3.20689565 20.6499913,3.20689565 C21.0052957,3.20689565 21.2690348,3.1028087 21.4372957,2.90089565 C21.6071217,2.6982 21.6932087,2.44854783 21.6932087,2.15976522" id="Fill-114"></path>
                        <path d="M27.1177043,3.64781739 L26.3280522,3.64781739 C26.3280522,3.54842609 26.2537043,3.2619913 26.1018783,2.79477391 L24.9600522,2.79477391 C24.8050957,3.25573043 24.7276174,3.53825217 24.7276174,3.64781739 L23.9841391,3.64781739 C23.9841391,3.58990435 24.1774435,3.10077391 24.5617043,2.19138261 C24.948313,1.27494783 25.1377043,0.773295652 25.1377043,0.6786 L26.0729217,0.6786 C26.0729217,0.766252174 26.2466609,1.26242609 26.5949217,2.16477391 C26.9416174,3.0726 27.1177043,3.56329565 27.1177043,3.64781739 L27.1177043,3.64781739 Z M25.9766609,2.35886087 C25.6941391,1.57390435 25.5556174,1.15286087 25.5556174,1.08790435 L25.5141391,1.08790435 C25.5141391,1.14738261 25.3685739,1.57077391 25.0790087,2.35886087 L25.9766609,2.35886087 Z" id="Fill-116"></path>
                        <path d="M29.9989565,1.45823478 C29.9989565,1.8198 29.8518261,2.08745217 29.5583478,2.26275652 C29.2687826,2.43414783 28.908,2.52023478 28.4838261,2.52023478 C28.4071304,2.52023478 28.3523478,2.52023478 28.3202609,2.51788696 C28.3202609,2.80432174 28.3273043,3.17762609 28.346087,3.64484348 L27.6511304,3.64484348 C27.6738261,3.20814783 27.6855652,2.68849565 27.6855652,2.09371304 C27.6855652,1.54823478 27.6738261,1.07866957 27.6511304,0.678756522 L28.083913,0.678756522 C28.1449565,0.678756522 28.26,0.676408696 28.4321739,0.672495652 C28.6035652,0.669365217 28.7561739,0.666234783 28.8806087,0.666234783 C29.1952174,0.666234783 29.4581739,0.731973913 29.6749565,0.863452174 C29.8893913,0.994147826 29.9989565,1.1898 29.9989565,1.45823478 M29.3603478,1.58188696 C29.3603478,1.25866957 29.1263478,1.09353913 28.6606957,1.09353913 C28.5433043,1.09353913 28.418087,1.10606087 28.2897391,1.12797391 C28.3061739,1.41675652 28.3171304,1.74153913 28.3171304,2.10388696 C28.3578261,2.10623478 28.4063478,2.10858261 28.4587826,2.10858261 C29.0606087,2.10858261 29.3603478,1.93484348 29.3603478,1.58188696" id="Fill-118"></path>
                        <path d="M32.961287,1.45823478 C32.961287,1.8198 32.8165043,2.08745217 32.5238087,2.26275652 C32.2295478,2.43414783 31.8703304,2.52023478 31.4469391,2.52023478 C31.3694609,2.52023478 31.313113,2.52023478 31.2810261,2.51788696 C31.2810261,2.80432174 31.2904174,3.17762609 31.3084174,3.64484348 L30.6158087,3.64484348 C30.6353739,3.20814783 30.6463304,2.68849565 30.6463304,2.09371304 C30.6463304,1.54823478 30.6353739,1.07866957 30.6158087,0.678756522 L31.0454609,0.678756522 C31.1049391,0.678756522 31.2215478,0.676408696 31.3960696,0.672495652 C31.5682435,0.669365217 31.7177217,0.666234783 31.8445043,0.666234783 C32.1575478,0.666234783 32.4236348,0.731973913 32.6380696,0.863452174 C32.8540696,0.994147826 32.961287,1.1898 32.961287,1.45823478 M32.3234609,1.58188696 C32.3234609,1.25866957 32.0894609,1.09353913 31.6230261,1.09353913 C31.5064174,1.09353913 31.3796348,1.10606087 31.2497217,1.12797391 C31.2716348,1.41675652 31.2778957,1.74153913 31.2778957,2.10388696 C31.3201565,2.10623478 31.3694609,2.10858261 31.4218957,2.10858261 C32.0245043,2.10858261 32.3234609,1.93484348 32.3234609,1.58188696" id="Fill-120"></path>
                        <path d="M37.8044609,2.10858261 C37.8044609,2.57658261 37.6518522,2.9631913 37.3388087,3.26762609 C37.0320261,3.57362609 36.6477652,3.72858261 36.1907217,3.72858261 C35.7555913,3.72858261 35.3940261,3.59006087 35.0997652,3.3044087 C34.8055043,3.02501739 34.6607217,2.66658261 34.6607217,2.23066957 C34.6607217,1.76736522 34.8164609,1.37997391 35.1255913,1.0724087 C35.4339391,0.766408696 35.8158522,0.610669565 36.2728957,0.610669565 C36.7103739,0.610669565 37.0711565,0.75153913 37.3654174,1.03484348 C37.658113,1.31423478 37.8044609,1.67345217 37.8044609,2.10858261 M37.1235913,2.17510435 C37.1235913,1.85736522 37.0343739,1.59832174 36.8606348,1.40266957 C36.6845478,1.20310435 36.4646348,1.10606087 36.2079391,1.10606087 C35.9668957,1.10606087 35.7626348,1.20623478 35.5928087,1.4058 C35.426113,1.60458261 35.3423739,1.85423478 35.3423739,2.15945217 C35.3423739,2.47406087 35.4308087,2.73232174 35.6076783,2.92797391 C35.786113,3.12832174 36.0005478,3.22771304 36.2580261,3.22771304 C36.4990696,3.22771304 36.704113,3.12832174 36.8715913,2.92797391 C37.038287,2.72527826 37.1235913,2.4771913 37.1235913,2.17510435" id="Fill-122"></path>
                        <path d="M41.1541826,3.64781739 L40.5414,3.64781739 C40.5414,3.5859913 40.3167913,3.25573043 39.8652261,2.66094783 C39.3886174,2.03173043 39.1178348,1.6052087 39.0536609,1.3719913 L39.0160957,1.3719913 C39.0536609,1.7046 39.0747913,2.00668696 39.0747913,2.27355652 C39.0747913,2.65155652 39.0880957,3.10703478 39.1092261,3.64781739 L38.503487,3.64781739 C38.5269652,3.17512174 38.5387043,2.65781739 38.5387043,2.09433913 C38.5387043,1.53946957 38.5269652,1.06833913 38.503487,0.6786 L39.2367913,0.6786 C39.2367913,0.760773913 39.439487,1.08086087 39.8472261,1.6419913 C40.2800087,2.23990435 40.527313,2.64842609 40.5930522,2.85973043 L40.627487,2.85973043 C40.591487,2.52086087 40.5695739,2.21564348 40.5695739,1.9472087 C40.5695739,1.53712174 40.5594,1.11294783 40.5367043,0.6786 L41.1541826,0.6786 C41.1291391,1.05581739 41.1174,1.53007826 41.1174,2.09433913 C41.1174,2.66642609 41.1291391,3.18373043 41.1541826,3.64781739" id="Fill-124"></path>
                    </g>
                </g>
            </g>
        </g>
    </g>
</svg>